PathFileType	4	(X/Y/Z)	C:\Users\WrightLab\Desktop\Jo\P5V23.trc
DataRate	CameraRate	NumFrames	NumMarkers	Units	OrigDataRate	OrigDataStartFrame	OrigNumFrames
100.00	100.00	       11	19	mm	100.00	647	       739
Frame#	Time	Headset_Front			Headset_Back			Headset_Left			Headset_Right			Left_Shoulder			Right_Shoulder			Sternum			C7			Left Elbow			Right Elbow			Left Wrist			Right Wrist			Left ASIS			Right ASIS			S2			Left Knee			Right Knee			Left Ankle			Right Ankle			
		X1	Y1	Z1	X2	Y2	Z2	X3	Y3	Z3	X4	Y4	Z4	X5	Y5	Z5	X6	Y6	Z6	X7	Y7	Z7	X8	Y8	Z8	X9	Y9	Z9	X10	Y10	Z10	X11	Y11	Z11	X12	Y12	Z12	X13	Y13	Z13	X14	Y14	Z14	X15	Y15	Z15	X16	Y16	Z16	X17	Y17	Z17	X18	Y18	Z18	X19	Y19	Z19	

647	6.460	-242.50987	1570.93079	-182.83224	-467.87482	1525.85107	-215.99342							-90.55276	1525.18958	-387.81512	-479.68073	1404.00574	-316.12692	-254.59193	1295.78784	-297.50067	-330.27173	1516.34509	-473.16754	-94.37403	1316.63550	-308.30545	-626.03650	1159.83032	-316.62332	29.93539	1282.39539	-463.63760	-678.48126	1025.26086	-113.54698	-72.38059	937.30707	-337.83444	-349.44919	914.29852	-260.76028	-241.87804	991.33167	-559.13397	-60.80365	487.47052	-343.00806	-413.89771	491.21442	-290.80472	-97.07307	92.60952	-564.00574	-381.62161	89.84339	-291.77939	
648	6.470	-239.58148	1571.05383	-186.10931	-465.04260	1525.94153	-220.53130							-86.94084	1524.94507	-390.12424	-477.33691	1403.90735	-321.23187	-252.18802	1295.12415	-302.49225	-326.60831	1516.41101	-477.52255	-92.23759	1316.13281	-313.18616	-623.57568	1160.49243	-322.66455	33.08992	1281.77905	-467.32016	-676.42267	1026.30762	-120.17442	-71.38661	936.77356	-341.58670	-347.86240	914.70758	-264.70679	-240.29106	991.27588	-563.71289	-60.86262	487.07257	-346.48752	-411.19864	490.32648	-293.25342	-97.11261	90.41331	-564.67938	-381.43594	90.20296	-292.70950	
649	6.480	-237.88438	1570.97192	-190.45152	-463.70633	1525.88623	-224.53961							-84.49335	1524.30884	-395.40451	-472.74139	1403.91479	-325.37698	-249.59125	1294.48730	-306.85635	-323.31357	1516.37744	-482.51266	-89.89263	1314.91162	-316.74365	-620.63678	1159.58215	-327.79337	35.75657	1280.62415	-471.05338	-674.51520	1026.30554	-125.97908	-68.58389	935.94586	-344.99188	-347.08661	914.38269	-268.96002	-237.63657	990.80396	-567.95813	-58.35712	486.82562	-350.19199	-410.26413	490.08136	-296.11087	-96.20949	89.65012	-565.20490	-381.44205	90.27119	-292.73520	
650	6.490	-233.82281	1571.03223	-195.54956	-459.11127	1525.77600	-229.66466							-81.30547	1523.45520	-398.93591	-469.64343	1403.65503	-330.61081	-246.76544	1294.78455	-311.52115	-319.67157	1516.25696	-486.84174	-86.49212	1315.62537	-320.19418	-618.32538	1159.63293	-333.85938	39.09381	1280.12280	-474.28085	-672.68323	1026.61438	-132.80479	-67.89684	935.35504	-349.02161	-345.75729	914.39636	-273.41769	-235.45703	991.06049	-572.54651	-57.80337	486.99420	-353.74081	-408.52127	489.62076	-298.22067	-95.70096	88.44817	-565.31720	-381.43655	90.31876	-292.75055	
651	6.500				-456.14587	1526.12000	-234.34337							-77.47338	1523.20190	-402.39853	-468.47333	1404.08777	-336.57037	-245.10796	1293.67102	-316.09860	-316.36993	1516.48975	-491.49158	-84.98664	1314.11096	-324.66229	-615.90106	1161.02588	-341.17032	42.05508	1279.22888	-477.91003	-670.24750	1026.13623	-138.22812	-65.36788	934.56689	-353.15305	-344.26379	914.31348	-277.96497	-233.00360	990.38556	-576.92596	-55.96470	487.50491	-357.67630	-407.28534	489.84125	-302.15527	-96.10745	87.02436	-565.75128	-381.45901	90.37669	-292.81149	
652	6.510				-453.16037	1526.29077	-238.91360							-75.07454	1522.04041	-406.89536	-465.35742	1404.14600	-341.24139	-242.31505	1293.49121	-320.03784	-312.72302	1516.23206	-495.70950	-81.63386	1313.36230	-328.34637	-613.64746	1161.52881	-346.16656	44.50083	1278.71033	-482.44312	-668.72528	1026.95325	-144.32628	-63.45669	933.78442	-357.19824	-342.83920	913.74683	-283.07791	-230.51086	990.06750	-581.78772	-54.18002	487.77832	-361.75098	-405.13968	489.63971	-305.45413	-96.00442	85.87138	-566.07477	-381.44409	90.96146	-293.38284	
653	6.520				-451.68817	1526.10583	-242.88155							-71.74696	1521.39905	-410.98907	-462.08841	1404.03760	-345.95776	-240.10258	1293.64795	-325.83206	-309.62354	1516.80505	-500.15817	-79.41552	1312.76318	-331.34991	-610.73688	1161.04004	-351.81451	48.49446	1277.89136	-486.00494	-666.84686	1027.15161	-151.55307	-61.36606	933.90295	-361.44070	-341.51550	913.93152	-288.47238	-228.31694	990.15375	-587.57349	-52.72398	487.67551	-365.24304	-402.49045	489.58029	-308.90005	-95.39738	85.91418	-566.32544	-381.32254	91.28101	-293.39865	
654	6.530				-447.04364	1526.58191	-247.69666							-68.42270	1521.60352	-415.00229	-459.21185	1404.69019	-351.38187	-237.50897	1293.49548	-330.30759	-306.02325	1516.80591	-504.76495	-77.11451	1312.90295	-336.40591	-607.78259	1161.44995	-357.27536	51.14816	1277.60986	-489.12897	-664.62732	1026.89600	-156.96875	-58.87687	933.61450	-365.39322	-340.43784	914.44061	-292.84732	-225.92889	990.10742	-591.81238	-51.25722	487.65503	-369.74207	-400.05701	489.34021	-311.52676	-95.52388	85.45973	-567.23108	-381.40768	91.73170	-293.75421	
655	6.540				-443.93301	1527.07056	-251.89175							-64.96883	1520.99048	-419.77698	-457.37552	1405.02905	-356.12634	-234.76471	1293.39722	-335.12280	-303.18115	1517.29700	-509.60287	-73.30575	1312.65564	-339.89212	-605.19171	1161.98059	-363.69199	54.46030	1277.33008	-493.11957	-661.97388	1027.06482	-164.36749	-56.79387	933.00482	-369.43561	-338.92432	914.23676	-298.47647	-222.89534	989.73560	-596.57141	-48.47036	488.46097	-373.54272	-397.01086	488.77170	-315.75674	-94.22567	84.69518	-567.19537	-381.43607	91.85334	-293.78189	
656	6.550				-440.95532	1527.22864	-256.08661							-61.68493	1520.74939	-423.30957	-454.13892	1404.88525	-360.96524	-233.27638	1293.23059	-339.37689	-299.44479	1517.41418	-513.15607	-72.00671	1312.79077	-344.57556	-602.92633	1162.19409	-369.09082	56.39592	1276.45422	-496.78448	-659.57391	1026.01196	-169.36336	-55.30327	932.66913	-373.54788	-337.26852	913.95135	-303.38925	-220.78175	989.40594	-601.55133	-47.66851	488.83356	-378.13571	-394.32391	488.41147	-319.50717	-94.51597	83.54285	-568.17871	-381.55914	91.92244	-294.16736	
657	6.560				-439.90341	1527.81128	-260.20605							-59.22500	1520.38525	-427.16525	-450.93423	1406.49170	-365.41959	-230.12352	1293.72449	-343.20001	-296.68933	1517.78357	-517.83551	-69.51970	1311.94604	-348.12061	-600.76581	1163.86670	-376.34961	58.96775	1276.06628	-499.78629	-656.80896	1026.29968	-175.60341	-53.48294	932.10022	-377.47052	-335.69135	914.40045	-309.04929	-218.14673	989.35474	-606.85992	-44.91074	490.07297	-382.06680	-390.90866	488.44861	-322.83194	-94.05433	83.31750	-568.85803	-381.55588	92.23499	-294.46780	
